# xmcd
#
# Track frame offsets:
#	150
#	18773
#	34874
#	52095
#	71221
#	87585
#	102388
#	118903
#	132227
#	148487
#	169811
#	188044
#	206347
#
# Disc length: 3055 seconds
#
# Revision: 1
# Processed by: cddbd v1.5.2PL0 Copyright (c) Steve Scherf et al.
# Submitted via: EasyCDDAExtractor 15.3.0.1
#
DISCID=c70bed0d
DTITLE=Ednita Nazario - Real
DYEAR=2007
DGENRE=Latin
TTITLE0=Alguien Mas
TTITLE1=Todavia
TTITLE2=No (Dueto Con Natalia Jimenez)
TTITLE3=Me Quedo
TTITLE4=No Te Mentia
TTITLE5=Puedo
TTITLE6=Despues De Ti
TTITLE7=Hoy
TTITLE8=Cuestion De Tiempo
TTITLE9=Cuando No Te Queden Lagrimas
TTITLE10=Azul (Dueto Con Reyli)
TTITLE11=Days Of Innocence
TTITLE12=Real
EXTD=
EXTT0=
EXTT1=
EXTT2=
EXTT3=
EXTT4=
EXTT5=
EXTT6=
EXTT7=
EXTT8=
EXTT9=
EXTT10=
EXTT11=
EXTT12=
PLAYORDER=
